<mxfile host="app.diagrams.net" modified="2022-03-03T05:19:37.251Z" agent="5.0 (Windows NT 10.0; Win64; x64) AppleWebKit/537.36 (KHTML, like Gecko) Chrome/98.0.4758.102 Safari/537.36" etag="2B4BeEk3i6luaVNF-rTQ" version="16.6.4" type="github">
  <diagram id="-L9g1W_YFleN1eRqW0Zt" name="Page-1">
    <mxGraphModel dx="925" dy="536" grid="1" gridSize="10" guides="1" tooltips="1" connect="1" arrows="1" fold="1" page="1" pageScale="1" pageWidth="850" pageHeight="1100" math="0" shadow="0">
      <root>
        <mxCell id="0" />
        <mxCell id="1" parent="0" />
        <mxCell id="jtlBsj4RMmiKG3bMawBm-1" value="&lt;h2&gt;&lt;font face=&quot;Tahoma&quot;&gt;Denodo&lt;/font&gt;&lt;/h2&gt;" style="rounded=0;whiteSpace=wrap;html=1;fillColor=#dae8fc;strokeColor=#6c8ebf;" vertex="1" parent="1">
          <mxGeometry x="270" y="200" width="210" height="110" as="geometry" />
        </mxCell>
        <mxCell id="jtlBsj4RMmiKG3bMawBm-2" value="Security" style="rounded=1;whiteSpace=wrap;html=1;fontFamily=Tahoma;" vertex="1" parent="1">
          <mxGeometry x="315" y="320" width="120" height="60" as="geometry" />
        </mxCell>
        <mxCell id="jtlBsj4RMmiKG3bMawBm-3" value="Performance" style="rounded=1;whiteSpace=wrap;html=1;fontFamily=Tahoma;" vertex="1" parent="1">
          <mxGeometry x="450" y="320" width="120" height="60" as="geometry" />
        </mxCell>
        <mxCell id="jtlBsj4RMmiKG3bMawBm-4" value="Data abstraction" style="rounded=1;whiteSpace=wrap;html=1;fontFamily=Tahoma;" vertex="1" parent="1">
          <mxGeometry x="320" y="130" width="120" height="60" as="geometry" />
        </mxCell>
      </root>
    </mxGraphModel>
  </diagram>
</mxfile>
